<?xml version="1.0" encoding="UTF-8" standalone="no"?><svg xmlns="http://www.w3.org/2000/svg" xmlns:xlink="http://www.w3.org/1999/xlink" contentScriptType="application/ecmascript" contentStyleType="text/css" height="224px" preserveAspectRatio="none" style="width:337px;height:224px;" version="1.1" viewBox="0 0 337 224" width="337px" zoomAndPan="magnify"><defs><filter height="300%" id="f2j0zxbpliez" width="300%" x="-1" y="-1"><feGaussianBlur result="blurOut" stdDeviation="2.0"/><feColorMatrix in="blurOut" result="blurOut2" type="matrix" values="0 0 0 0 0 0 0 0 0 0 0 0 0 0 0 0 0 0 .4 0"/><feOffset dx="4.0" dy="4.0" in="blurOut2" result="blurOut3"/><feBlend in="SourceGraphic" in2="blurOut3" mode="normal"/></filter></defs><g><text fill="#000000" font-family="sans-serif" font-size="18" lengthAdjust="spacingAndGlyphs" textLength="51" x="146" y="16.708">Bomb</text><ellipse cx="106" cy="38.9531" fill="#000000" filter="url(#f2j0zxbpliez)" rx="10" ry="10" style="stroke: none; stroke-width: 1.0;"/><rect fill="#FEFECE" filter="url(#f2j0zxbpliez)" height="50" rx="12.5" ry="12.5" style="stroke: #A80036; stroke-width: 1.5;" width="84" x="241" y="135.9531"/><line style="stroke: #A80036; stroke-width: 1.5;" x1="241" x2="325" y1="162.25" y2="162.25"/><text fill="#000000" font-family="sans-serif" font-size="14" lengthAdjust="spacingAndGlyphs" textLength="64" x="251" y="153.9482">exploded</text><rect fill="#FEFECE" filter="url(#f2j0zxbpliez)" height="104.2969" rx="12.5" ry="12.5" style="stroke: #A80036; stroke-width: 1.5;" width="200" x="6" y="108.9531"/><rect fill="#FFFFFF" height="72" rx="12.5" ry="12.5" style="stroke: #FFFFFF; stroke-width: 1.0;" width="194" x="9" y="138.25"/><line style="stroke: #A80036; stroke-width: 1.5;" x1="6" x2="206" y1="135.25" y2="135.25"/><text fill="#000000" font-family="sans-serif" font-size="14" lengthAdjust="spacingAndGlyphs" textLength="64" x="74" y="126.9482">deployed</text><rect fill="#FEFECE" filter="url(#f2j0zxbpliez)" height="50" rx="12.5" ry="12.5" style="stroke: #A80036; stroke-width: 1.5;" width="50" x="17" y="148.25"/><line style="stroke: #A80036; stroke-width: 1.5;" x1="17" x2="67" y1="174.5469" y2="174.5469"/><text fill="#000000" font-family="sans-serif" font-size="14" lengthAdjust="spacingAndGlyphs" textLength="24" x="30" y="166.2451">idle</text><rect fill="#FEFECE" filter="url(#f2j0zxbpliez)" height="50" rx="12.5" ry="12.5" style="stroke: #A80036; stroke-width: 1.5;" width="88" x="85" y="148.25"/><line style="stroke: #A80036; stroke-width: 1.5;" x1="85" x2="173" y1="174.5469" y2="174.5469"/><text fill="#000000" font-family="sans-serif" font-size="14" lengthAdjust="spacingAndGlyphs" textLength="68" x="95" y="166.2451">notBuffed</text><!--MD5=[0d122bf14c7da7b5c6a29b008e9ad7af]
link *start to deployed--><path d="M106,49.3548 C106,61.5726 106,82.81 106,103.5012 " fill="none" id="*start-&gt;deployed" style="stroke: #A80036; stroke-width: 1.0;"/><polygon fill="#A80036" points="106,108.7441,110,99.7441,106,103.7441,102,99.7441,106,108.7441" style="stroke: #A80036; stroke-width: 1.0;"/><!--MD5=[27799feefe3fc6f8c6da1ba4fca968fc]
link deployed to exploded--><path d="M206.2539,160.9531 C216.04,160.9531 225.8261,160.9531 235.6122,160.9531 " fill="none" id="deployed-&gt;exploded" style="stroke: #A80036; stroke-width: 1.0;"/><polygon fill="#A80036" points="240.7297,160.9531,231.7297,156.9531,235.7297,160.9531,231.7297,164.9531,240.7297,160.9531" style="stroke: #A80036; stroke-width: 1.0;"/><!--MD5=[96616b154c6e3d0dfeb6680e327f2895]
@startuml
title Bomb
[*] - -> deployed 
state deployed {
  state idle
  state notBuffed
}
deployed -> exploded
@enduml

PlantUML version 1.2019.11(Sun Sep 22 10:02:15 UTC 2019)
(GPL source distribution)
Java Runtime: OpenJDK Runtime Environment
JVM: OpenJDK 64-Bit Server VM
Java Version: 1.8.0_222-heroku-b10
Operating System: Linux
Default Encoding: UTF-8
Language: en
Country: US
--></g></svg>